<svg width="24" height="34" viewBox="0 0 24 34" fill="none" xmlns="http://www.w3.org/2000/svg">
<path d="M11.5636 20.8565C11.5636 18.9229 9.99566 17.3556 8.06209 17.3565L6.89627 17.357L6.89081 23.6191H4.61387V17.355L0 17.357V24.5813C0 24.5813 0.194108 28.0564 4.61278 27.7626L6.88972 27.7803V29.8615H0V33.9912H7.22232C7.22232 33.9912 11.1841 34.3165 11.5636 31.1174V20.8565Z" fill="#4A879A"/>
<path fill-rule="evenodd" clip-rule="evenodd" d="M0.000147952 16.6235H8.2279C8.2279 16.6235 11.4285 16.5111 11.5637 13.0438V3.3756C11.5637 3.3756 11.5245 0.0700403 7.66739 4.48938e-05H3.50171C3.50171 4.48938e-05 1.17679 -0.0393891 0.206251 2.21919C0.206251 2.21919 -0.00639499 2.51692 0.000147952 3.65558V16.6235ZM4.58566 4.07555V12.4829H6.93022L6.91059 4.05879L4.58566 4.07555Z" fill="#4A879A"/>
<path fill-rule="evenodd" clip-rule="evenodd" d="M23.9999 16.6235H15.7721C15.7721 16.6235 12.5715 16.5111 12.4363 13.0438V3.3756C12.4363 3.3756 12.4755 0.0700403 16.3326 4.48938e-05H20.4983C20.4983 4.48938e-05 22.8232 -0.0393891 23.7937 2.21919C23.7937 2.21919 24.0064 2.51692 23.9999 3.65558V16.6235ZM19.4143 4.07555V12.4829H17.0698L17.0894 4.05879L19.4143 4.07555Z" fill="#4A879A"/>
<path fill-rule="evenodd" clip-rule="evenodd" d="M23.9999 33.9469H15.7721C15.7721 33.9469 12.5715 33.8346 12.4363 30.3673V20.6991C12.4363 20.6991 12.4755 17.3935 16.3326 17.3235H23.9999V33.9469ZM16.5133 22.3818C16.5168 21.8297 16.967 21.3849 17.5191 21.3881L19.4143 21.399L19.4007 24.5H17.5063C16.9516 24.5 16.5028 24.0484 16.5063 23.4937L16.5133 22.3818ZM19.4143 30H17.5019C16.9489 30 16.5009 29.5511 16.5019 28.9981L16.5038 27.9981C16.5048 27.4466 16.9523 27 17.5038 27H19.4143V30Z" fill="#4A879A"/>
</svg>
