<?xml version="1.0" encoding="utf-8"?>
<svg viewBox="76.5 0 24 24" xmlns="http://www.w3.org/2000/svg">
  <defs>
    <style>.cls-1{fill:#f5f5f4;}</style>
  </defs>
  <path class="cls-1" d="M 99.275 -0.009 L 77.725 -0.009 C 77.05 -0.009 76.502 0.537 76.5 1.213 L 76.5 11.485 C 76.502 12.16 77.05 12.707 77.725 12.707 L 82.124 12.707 L 82.124 22.783 C 82.124 23.46 82.672 24.008 83.349 24.008 L 93.629 24.008 C 94.304 24.008 94.852 23.459 94.849 22.783 L 94.849 12.707 L 99.275 12.707 C 99.951 12.707 100.498 12.16 100.5 11.485 L 100.5 1.213 C 100.498 0.537 99.951 -0.009 99.275 -0.009 Z M 77.904 1.409 L 87.781 1.409 L 87.781 11.289 L 77.904 11.289 L 77.904 1.409 Z M 93.432 22.587 L 83.551 22.587 L 83.551 12.707 L 93.432 12.707 L 93.432 22.587 Z M 99.079 11.289 L 89.202 11.289 L 89.202 1.409 L 99.079 1.409 L 99.079 11.289 Z" style="transform-origin: 117.912px 12px;"/>
  <path class="cls-1" d="M 84.607 7.983 C 84.741 8.117 84.922 8.193 85.111 8.193 C 85.659 8.19 85.998 7.597 85.722 7.124 C 85.691 7.073 85.655 7.024 85.612 6.982 L 83.345 4.711 C 83.065 4.431 82.611 4.431 82.33 4.711 L 80.063 6.982 C 79.672 7.372 79.851 8.039 80.385 8.182 C 80.633 8.249 80.897 8.178 81.078 7.997 L 82.844 6.234 L 84.607 7.983 Z" style="transform-origin: 117.912px 12px;"/>
  <path class="cls-1" d="M 92.376 7.983 L 94.142 6.22 L 95.905 7.983 C 96.039 8.117 96.221 8.193 96.409 8.193 C 96.957 8.19 97.296 7.597 97.02 7.124 C 96.989 7.073 96.953 7.024 96.91 6.982 L 94.643 4.711 C 94.363 4.431 93.909 4.431 93.629 4.711 L 91.361 6.982 C 90.97 7.372 91.149 8.039 91.683 8.182 C 91.931 8.249 92.195 8.178 92.376 7.997 L 92.376 7.983 Z" style="transform-origin: 117.912px 12px;"/>
  <path class="cls-1" d="M 86.725 16.013 C 86.335 15.622 85.668 15.801 85.525 16.334 C 85.459 16.582 85.53 16.847 85.71 17.028 L 87.981 19.298 C 88.261 19.581 88.717 19.581 88.996 19.298 L 91.263 17.028 C 91.653 16.637 91.475 15.97 90.942 15.827 C 90.693 15.761 90.429 15.832 90.248 16.013 L 88.481 17.779 L 86.725 16.013 Z" style="transform-origin: 117.912px 12px;"/>
</svg>