<svg width="150" height="151" viewBox="0 0 150 151" fill="none" xmlns="http://www.w3.org/2000/svg">
<path d="M122.319 47.3387C125.95 47.3324 129.546 48.0438 132.901 49.4322C136.256 50.8206 139.304 52.8584 141.869 55.4287V55.4287L133.769 47.3287L94.5287 8.09875C90.659 4.23131 85.7296 1.59778 80.3636 0.531062C74.9977 -0.535658 69.436 0.0123003 64.3813 2.10565C59.3267 4.19899 55.006 7.74375 51.9655 12.292C48.9249 16.8402 47.3008 22.1878 47.2986 27.6587V47.3287L122.319 47.3387Z" fill="url(#paint0_linear_8_721)"/>
<path d="M47.3187 27.6688C47.3145 24.0381 48.027 20.4423 49.4152 17.0875C50.8035 13.7327 52.8403 10.6849 55.4087 8.11877V8.11877L47.3087 16.2188L8.09869 55.4388C4.23125 59.3085 1.59778 64.2378 0.531062 69.6038C-0.535658 74.9697 0.0123003 80.5315 2.10565 85.5861C4.19899 90.6408 7.74369 94.9614 12.2919 98.002C16.8402 101.043 22.1878 102.667 27.6587 102.669H47.3287L47.3187 27.6688Z" fill="url(#paint1_linear_8_721)"/>
<path d="M102.649 122.339C102.655 125.97 101.944 129.566 100.555 132.921C99.1668 136.276 97.1289 139.324 94.5586 141.889V141.889L102.659 133.789L141.899 94.5488C145.767 90.6785 148.4 85.7482 149.467 80.3813C150.533 75.0144 149.984 69.4518 147.89 64.3968C145.795 59.3417 142.249 55.0212 137.699 51.9814C133.149 48.9416 127.8 47.319 122.329 47.3187H102.659L102.649 122.339Z" fill="url(#paint2_linear_8_721)"/>
<path d="M27.6487 102.669C24.0194 102.674 20.4247 101.962 17.0714 100.573C13.7181 99.1851 10.6722 97.1479 8.10864 94.5789V94.5789L16.2086 102.679L55.4386 141.919C59.3089 145.787 64.2392 148.421 69.6061 149.487C74.973 150.553 80.5355 150.005 85.5906 147.91C90.6456 145.815 94.9662 142.269 98.006 137.719C101.046 133.17 102.668 127.821 102.669 122.349V102.669H27.6487Z" fill="url(#paint3_linear_8_721)"/>
<defs>
<linearGradient id="paint0_linear_8_721" x1="46.2986" y1="27.7287" x2="132.779" y2="27.7287" gradientUnits="userSpaceOnUse">
<stop stop-color="#188A82"/>
<stop offset="1" stop-color="#8FFFAD"/>
</linearGradient>
<linearGradient id="paint1_linear_8_721" x1="49" y1="103" x2="49" y2="8" gradientUnits="userSpaceOnUse">
<stop stop-color="#188A82"/>
<stop offset="1" stop-color="#8FFFAD"/>
</linearGradient>
<linearGradient id="paint2_linear_8_721" x1="114" y1="47" x2="115" y2="142" gradientUnits="userSpaceOnUse">
<stop stop-color="#188A82"/>
<stop offset="1" stop-color="#8FFFAD"/>
</linearGradient>
<linearGradient id="paint3_linear_8_721" x1="103" y1="113" x2="8" y2="111" gradientUnits="userSpaceOnUse">
<stop stop-color="#188A82"/>
<stop offset="1" stop-color="#8FFFAD"/>
</linearGradient>
</defs>
</svg>
